HIERARCHY
ROOT Hips
{
  OFFSET -331.093 83.8371 -317.828
  CHANNELS 6 Xposition Yposition Zposition Zrotation Xrotation Yrotation
  JOINT LeftUpLeg
  {
    OFFSET 8.64259 1.95398 -2.38835
    CHANNELS 3 Zrotation Xrotation Yrotation
    JOINT LeftLeg
    {
      OFFSET 43.7702 0 0
      CHANNELS 3 Zrotation Xrotation Yrotation
      JOINT LeftFoot
      {
        OFFSET 40.6238 0 0
        CHANNELS 3 Zrotation Xrotation Yrotation
        JOINT LeftToeBase
        {
          OFFSET 12.7242 0 0
          CHANNELS 3 Zrotation Xrotation Yrotation
          End Site
          {
            OFFSET 0 0 0
          }
        }
      }
    }
  }
  JOINT RightUpLeg
  {
    OFFSET -8.2249 1.95398 -2.59336
    CHANNELS 3 Zrotation Xrotation Yrotation
    JOINT RightLeg
    {
      OFFSET 43.5653 0 0
      CHANNELS 3 Zrotation Xrotation Yrotation
      JOINT RightFoot
      {
        OFFSET 40.6238 0 0
        CHANNELS 3 Zrotation Xrotation Yrotation
        JOINT RightToeBase
        {
          OFFSET 12.7242 0 0
          CHANNELS 3 Zrotation Xrotation Yrotation
          End Site
          {
            OFFSET 0 0 0
          }
        }
      }
    }
  }
  JOINT Spine
  {
    OFFSET 0.165834 0.87714 6.61349
    CHANNELS 3 Zrotation Xrotation Yrotation
    JOINT Spine1
    {
      OFFSET 7.38963 1.71661e-005 0
      CHANNELS 3 Zrotation Xrotation Yrotation
      JOINT Spine2
      {
        OFFSET 11.9445 1.14441e-005 0
        CHANNELS 3 Zrotation Xrotation Yrotation
        JOINT Spine3
        {
          OFFSET 14.7254 4.19617e-005 0
          CHANNELS 3 Zrotation Xrotation Yrotation
          JOINT Spine4
          {
            OFFSET 10.9679 0 0
            CHANNELS 3 Zrotation Xrotation Yrotation
            JOINT RightShoulder
            {
              OFFSET 2.46616 -1.6653 3.69651
              CHANNELS 3 Zrotation Xrotation Yrotation
              JOINT RightArm
              {
                OFFSET 13.0012 0 0
                CHANNELS 3 Zrotation Xrotation Yrotation
                JOINT RightForeArm
                {
                  OFFSET 28.7848 1.62311e-005 0
                  CHANNELS 3 Zrotation Xrotation Yrotation
                  JOINT RightHand
                  {
                    OFFSET 26.5688 1.62095e-005 0
                    CHANNELS 3 Zrotation Xrotation Yrotation
                    End Site
                    {
                      OFFSET 0 0 0
                    }
                  }
                }
              }
            }
            JOINT LeftShoulder
            {
              OFFSET 2.38034 -1.29275 -3.7523
              CHANNELS 3 Zrotation Xrotation Yrotation
              JOINT LeftArm
              {
                OFFSET 16.3182 6.07031e-005 0
                CHANNELS 3 Zrotation Xrotation Yrotation
                JOINT LeftForeArm
                {
                  OFFSET 27.0901 0 0
                  CHANNELS 3 Zrotation Xrotation Yrotation
                  JOINT LeftHand
                  {
                    OFFSET 24.5451 1.51738e-005 0
                    CHANNELS 3 Zrotation Xrotation Yrotation
                    End Site
                    {
                      OFFSET 0 0 0
                    }
                  }
                }
              }
            }
            JOINT Neck
            {
              OFFSET 5.0226 -0.0266342 0
              CHANNELS 3 Zrotation Xrotation Yrotation
              JOINT Head
              {
                OFFSET 6.69364 2.86102e-005 0
                CHANNELS 3 Zrotation Xrotation Yrotation
                End Site
                {
                  OFFSET 0 0 0
                }
              }
            }
          }
        }
      }
    }
  }
}
MOTION
Frames:	12
Frame Time:	0.0416667
-52.2366 99.0785 45.1995 -85.2027 -85.4876 -84.7848 -174.459 5.02274 92.2945 -9.794 3.39134 -0.582237 61.7151 1.08938 2.12142 30.0999 0.813814 -0.698727 172.16 4.24465 89.5384 -10.2007 -6.99438 -2.36138 62.0958 -0.992886 -0.526447 31.6215 -0.867387 -5.69837 0.0121418 6.80643 -90.1581 13.2608 -0.0521554 -0.309903 1.58983 -0.0657426 -0.307319 -20.945 0.0433913 -0.311254 -0.932384 0.0433965 -0.311256 91.3873 -39.4769 -100.773 33.2399 -18.3724 -0.274041 -4.44466 -10.2292 -38.7567 -6.8786 -0.466063 2.15433 -96.2541 -49.4177 69.7919 -22.549 14.4813 -0.409386 4.6976 15.5554 -33.5218 10.8135 1.38207 8.31946 5.27535 3.0105 3.9211 -8.08204 2.21896 0.385985 
-52.1805 99.0825 45.2688 -86.5172 -86.0121 -86.4377 -174.695 4.68343 91.8685 -9.45869 3.2166 -0.446053 61.7344 1.04145 1.75081 29.7713 0.529205 -0.890778 171.666 4.1896 89.032 -10.3958 -6.70479 -2.12726 62.3746 -1.10837 -0.599549 31.9798 -0.866046 -5.51721 -0.0562545 6.823 -90.121 13.2277 -0.169938 -0.220767 1.55676 -0.179486 -0.213084 -20.9783 -0.0957295 -0.261632 -0.965639 -0.0957342 -0.261644 91.3822 -39.4661 -100.784 33.3013 -18.4143 -0.250339 -4.56515 -10.4616 -38.6991 -7.46319 -0.531564 2.71745 -96.3465 -49.4802 69.6763 -22.4714 14.4212 -0.271294 4.6977 15.2654 -33.7229 10.5434 1.39816 8.85938 4.26775 1.72079 4.90438 -7.22805 0.902505 -1.53848 
-52.082 99.0281 45.3921 -91.0735 -86.2797 -91.2187 -174.849 4.35389 91.5521 -9.6824 3.01854 -0.326902 62.2461 1.20015 1.55443 29.2744 0.131911 -1.04926 171.181 3.52566 88.6634 -9.8439 -6.49594 -1.89082 62.829 -1.43359 -0.784877 31.4194 -0.728494 -4.81929 -0.0922186 6.86239 -90.0907 13.149 -0.226687 -0.153281 1.47802 -0.233214 -0.143162 -21.0572 -0.170136 -0.214324 -1.04452 -0.170142 -0.214334 91.3895 -39.4133 -100.785 33.4263 -18.4244 -0.253237 -4.72534 -10.7291 -38.7535 -7.35355 -0.560655 3.39853 -96.2782 -49.3986 69.7514 -22.5254 14.4529 -0.267745 4.88306 16.5816 -32.9292 12.4277 1.06498 4.46282 4.73506 1.16966 3.72641 -7.13904 0.500935 -0.494859 
-52.1025 98.9262 45.4249 -90.1959 -86.2777 -90.3778 -174.909 4.66327 91.4724 -10.3257 2.90342 -0.265691 62.9053 1.4229 1.54666 28.8637 -0.173621 -1.08502 171.112 2.93028 88.5863 -8.81318 -7.01437 -1.85263 63.2643 -1.91038 -1.04252 30.9797 -0.789487 -5.45258 -0.0927841 6.85529 -90.0878 13.1624 -0.226422 -0.147616 1.49146 -0.232695 -0.137518 -21.0437 -0.171585 -0.208836 -1.03109 -0.171595 -0.208853 91.3977 -39.4155 -100.771 33.4092 -18.3864 -0.256533 -4.82548 -10.7166 -38.6286 -7.0596 -0.526083 3.11402 -96.384 -49.4834 69.6225 -22.4163 14.4153 -0.193064 4.85291 16.5422 -32.8996 12.2095 1.06876 4.67254 4.88093 1.16032 3.75723 -7.54672 0.481765 -0.452582 
-52.0993 98.7933 45.3253 -89.601 -86.1596 -89.6819 -174.938 5.24257 91.5438 -11.3666 2.92197 -0.21955 63.5365 1.53701 1.67054 28.7 -0.26987 -0.980055 171.19 2.21292 88.7116 -7.4463 -7.49199 -1.84904 63.6507 -2.4363 -1.31651 30.4284 -0.827143 -6.00755 -0.0788363 6.8627 -90.0999 13.1683 -0.204496 -0.174084 1.49739 -0.211957 -0.164915 -21.0377 -0.14272 -0.227499 -1.02509 -0.142723 -0.227497 91.3709 -39.4711 -100.802 33.3879 -18.3297 -0.069704 -4.50871 -10.8082 -38.9373 -7.4827 -0.560685 3.23182 -96.4349 -49.5046 69.5548 -22.4433 14.3075 -0.167896 4.91996 16.7308 -32.8867 12.3917 1.097 4.77674 4.65515 1.03175 3.74549 -7.27107 0.364365 -0.468536 
-52.1399 98.6824 45.463 -90.275 -86.1787 -90.5181 -174.916 5.4525 91.4595 -12.0573 2.7728 -0.274718 63.8035 1.31484 1.37688 29.0322 -0.00511921 -0.873711 171.045 1.9908 88.5189 -7.56281 -8.15163 -1.83986 64.8865 -3.08471 -1.65945 29.9554 -0.872638 -6.61944 -0.0830798 6.8606 -90.087 13.1632 -0.206732 -0.148266 1.49228 -0.213061 -0.139024 -21.0429 -0.152615 -0.203542 -1.03023 -0.152618 -0.203544 91.4122 -39.3931 -100.751 33.3585 -18.4196 -0.133554 -4.55303 -10.8738 -38.8162 -7.35602 -0.54347 3.06087 -96.6353 -49.6653 69.3134 -22.2749 14.3569 0.00894503 4.88485 16.5374 -32.9688 12.3806 1.10038 4.8094 4.75574 1.13325 3.80686 -7.56791 0.449712 -0.439638 
-52.1221 98.5629 45.4386 -90.0187 -86.2111 -90.1841 -174.873 6.19806 91.5996 -13.3131 3.05682 -0.352242 63.8774 1.20539 1.85767 29.7094 0.28361 -1.77628 170.981 1.93132 88.5318 -7.68214 -8.53588 -1.72139 66.0903 -3.74487 -1.99395 29.1733 -0.854437 -6.95936 -0.08836 6.85657 -90.0864 13.1679 -0.216927 -0.145841 1.49697 -0.223137 -0.136154 -21.0382 -0.163064 -0.204291 -1.02557 -0.163074 -0.204295 91.3342 -39.5549 -100.844 33.3561 -18.3071 -0.115622 -4.72078 -10.9343 -38.7672 -7.30788 -0.551174 3.26653 -96.4833 -49.5708 69.505 -22.2765 14.4511 0.0138548 4.89562 16.5912 -32.9798 12.2418 1.09153 4.82832 4.698 1.09122 3.49035 -7.58748 0.455877 -0.203011 
-52.1467 98.4693 45.4521 -89.7755 -86.3014 -89.9736 -174.854 6.63066 91.6067 -14.1636 2.77778 -0.387364 64.1802 0.908668 1.41023 30.2975 0.677152 -1.90306 171.04 1.81531 88.5397 -7.71597 -8.76247 -1.77905 67.0542 -4.23735 -2.22801 28.8301 -0.897044 -7.54316 -0.0966065 6.85476 -90.0896 13.1639 -0.234829 -0.150168 1.49297 -0.241215 -0.139691 -21.0422 -0.178847 -0.213804 -1.02957 -0.178845 -0.213804 91.3606 -39.5889 -100.789 33.1533 -18.3713 -0.249706 -4.44066 -10.8652 -38.6386 -7.41254 -0.554916 3.21124 -96.6017 -49.671 69.3635 -22.2541 14.3268 -0.0513354 4.92841 16.7509 -32.8602 12.558 1.12438 4.88221 4.45935 1.05235 3.7393 -7.33087 0.398462 -0.593128 
-52.1357 98.4088 45.4889 -91.64 -86.1986 -91.8866 -174.882 6.83809 91.5338 -14.8131 3.06264 -0.382059 64.4189 1.27059 2.40012 29.2467 -0.220421 -2.57117 170.848 1.67645 88.3748 -7.86641 -9.41941 -1.67859 67.827 -4.70185 -2.446 28.307 -0.902112 -7.97276 -0.086511 6.87183 -90.0889 13.13 -0.21445 -0.151376 1.4591 -0.220894 -0.141797 -21.0761 -0.159033 -0.208826 -1.06342 -0.159051 -0.208839 91.2895 -39.5936 -100.91 33.2242 -18.1656 -0.144768 -5.00874 -10.7472 -38.6697 -6.99611 -0.530946 3.2982 -96.6671 -49.7731 69.3014 -22.1793 14.4141 -0.00715471 4.91513 16.5738 -33.0318 12.7587 1.16383 5.05325 4.39892 0.96236 3.68948 -7.20143 0.323677 -0.674738 
-52.1513 98.3406 45.5019 -90.2671 -86.3771 -90.5649 -174.89 7.10904 91.5142 -15.1993 3.12736 -0.415215 64.7692 1.36075 2.29249 29.4552 -0.149327 -2.91777 170.934 1.6624 88.3982 -7.83276 -9.2474 -1.74857 68.3608 -4.95912 -2.55741 28.1525 -0.90332 -8.10325 -0.100296 6.86712 -90.0899 13.1405 -0.242272 -0.149825 1.46959 -0.248642 -0.13903 -21.0656 -0.186058 -0.215726 -1.05297 -0.186052 -0.215717 91.3559 -39.5074 -100.819 33.1719 -18.2723 -0.313145 -4.37801 -10.4628 -38.5169 -7.59171 -0.569772 3.28232 -96.7115 -49.7506 69.229 -22.2287 14.3847 -0.0527779 4.98002 16.6043 -33.1149 12.7193 1.16855 5.1134 4.51492 1.03616 3.55672 -7.40347 0.408659 -0.485959 
-52.1655 98.3398 45.5217 -90.9703 -86.3205 -91.2876 -174.914 7.03799 91.4914 -15.2012 3.06834 -0.376298 64.8533 1.3318 2.10656 29.001 -0.299887 -2.13355 170.885 1.61355 88.3579 -7.83979 -9.37793 -1.72705 68.3948 -4.98084 -2.56809 27.932 -0.868369 -7.96648 -0.0992132 6.87498 -90.0916 13.1276 -0.240947 -0.153338 1.45664 -0.247449 -0.142582 -21.0786 -0.183724 -0.218663 -1.06591 -0.183718 -0.218659 91.3607 -39.4418 -100.828 33.2282 -18.2761 -0.311965 -4.58623 -10.5833 -38.636 -7.4338 -0.575364 3.58394 -96.7313 -49.8416 69.2291 -22.249 14.1393 -0.138947 4.977 16.688 -32.9065 12.8541 1.1426 4.83626 4.4402 0.938908 3.43166 -7.38804 0.327545 -0.277672 
-52.1502 98.405 45.5319 -90.6683 -86.3936 -91.0738 -174.959 6.85289 91.3818 -14.7613 2.94532 -0.365938 64.4243 1.20919 2.15737 29.7251 0.0323084 -2.95118 170.763 1.6774 88.2378 -7.79722 -9.2948 -1.68049 67.9136 -4.71961 -2.45349 28.3762 -0.915445 -8.03312 -0.0988009 6.87189 -90.0804 13.1298 -0.234805 -0.131857 1.45889 -0.240372 -0.121401 -21.0763 -0.184322 -0.196328 -1.06368 -0.184314 -0.196328 91.4143 -39.5442 -100.707 33.2473 -18.2637 -0.331471 -4.49343 -10.7186 -38.5396 -7.52094 -0.590533 3.75099 -96.6718 -49.7517 69.2876 -22.3643 14.1267 -0.256396 4.89755 16.5528 -32.8237 13.0966 1.195 5.07366 4.57454 0.960116 3.38059 -7.74902 0.359537 -0.379729 
